<svg id="Layer_1" data-name="Layer 1" xmlns="http://www.w3.org/2000/svg" viewBox="0 0 384 352"><defs><style>.cls-1{fill:#fff;}</style></defs><title>LOGO</title><path class="cls-1" d="M123.79,281q-17.3-5.27-27.38-14l10.31-23.14a81,81,0,0,0,24.18,12.72,87.7,87.7,0,0,0,28.75,4.93q17.88,0,26.7-5.73t8.82-15.13a14.66,14.66,0,0,0-4.93-11.34,34.78,34.78,0,0,0-12.49-7q-7.56-2.5-20.62-5.72A240.21,240.21,0,0,1,127.46,208,48.87,48.87,0,0,1,108,194.32q-8.13-9.28-8.13-25.09a42.84,42.84,0,0,1,7.22-24.18q7.22-10.87,21.76-17.3t35.63-6.41A114.78,114.78,0,0,1,193.33,125a79.51,79.51,0,0,1,24.52,10.54l-9.39,23.14a92.57,92.57,0,0,0-22-9.4,82.66,82.66,0,0,0-22.23-3.21q-17.64,0-26.23,6t-8.59,15.81a14.31,14.31,0,0,0,4.92,11.23A35.69,35.69,0,0,0,146.82,186q7.56,2.53,20.62,5.73a216.81,216.81,0,0,1,29.33,8.59,50.22,50.22,0,0,1,19.59,13.64q8.13,9.17,8.13,24.74a42.27,42.27,0,0,1-7.21,24.06q-7.23,10.77-21.89,17.19t-35.74,6.41A122.48,122.48,0,0,1,123.79,281Z" transform="translate(-53 -70)"/><path class="cls-1" d="M388.78,215.17q7.79,10.2,7.79,25.32,0,20.85-16,32.19T333.79,284H254.05V123.63h75.16q28.4,0,43.76,11.11t15.35,30.59a40.12,40.12,0,0,1-5.5,21.08,37.65,37.65,0,0,1-15.12,14.21A42.32,42.32,0,0,1,388.78,215.17ZM283.84,147v44.22H326q15.57,0,23.94-5.61t8.36-16.38q0-11-8.36-16.61T326,147Zm82.71,90.51q0-23.14-34.59-23.14H283.84v46.28H332Q366.55,260.65,366.55,237.51Z" transform="translate(-53 -70)"/><path class="cls-1" d="M105.41,309.64v23.85H136.8V339H105.41v25.75H99v-60.7h41.63v5.55Z" transform="translate(-53 -70)"/><path class="cls-1" d="M180.64,361.28a29.44,29.44,0,0,1-11.44-11,32.3,32.3,0,0,1,0-31.57,29.47,29.47,0,0,1,11.44-11.06,35.15,35.15,0,0,1,32.61,0,29.42,29.42,0,0,1,11.4,11.06,32.11,32.11,0,0,1,0,31.65,29.49,29.49,0,0,1-11.4,11.06,35.12,35.12,0,0,1-32.61-.05ZM210,356.34a23.48,23.48,0,0,0,9.1-9,26.79,26.79,0,0,0,0-25.76,23.55,23.55,0,0,0-9.1-9,27.75,27.75,0,0,0-26.06,0,23.78,23.78,0,0,0-9.19,9,26.5,26.5,0,0,0,0,25.76,23.71,23.71,0,0,0,9.19,9,27.75,27.75,0,0,0,26.06,0Z" transform="translate(-53 -70)"/><path class="cls-1" d="M271.48,309.64H250.15v-5.55h49.09v5.55H277.9v55.15h-6.42Z" transform="translate(-53 -70)"/><path class="cls-1" d="M336.13,361.28a29.44,29.44,0,0,1-11.44-11,32.3,32.3,0,0,1,0-31.57,29.47,29.47,0,0,1,11.44-11.06,35.15,35.15,0,0,1,32.61,0,29.51,29.51,0,0,1,11.41,11.06,32.18,32.18,0,0,1,0,31.65,29.58,29.58,0,0,1-11.41,11.06,35.12,35.12,0,0,1-32.61-.05Zm29.36-4.94a23.57,23.57,0,0,0,9.11-9,26.86,26.86,0,0,0,0-25.76,23.64,23.64,0,0,0-9.11-9,27.75,27.75,0,0,0-26.06,0,23.78,23.78,0,0,0-9.19,9,26.5,26.5,0,0,0,0,25.76,23.71,23.71,0,0,0,9.19,9,27.75,27.75,0,0,0,26.06,0Z" transform="translate(-53 -70)"/><path class="cls-1" d="M105.41,309.64v23.85H136.8V339H105.41v25.75H99v-60.7h41.63v5.55Z" transform="translate(-53 -70)"/><path class="cls-1" d="M180.64,361.28a29.44,29.44,0,0,1-11.44-11,32.3,32.3,0,0,1,0-31.57,29.47,29.47,0,0,1,11.44-11.06,35.15,35.15,0,0,1,32.61,0,29.42,29.42,0,0,1,11.4,11.06,32.11,32.11,0,0,1,0,31.65,29.49,29.49,0,0,1-11.4,11.06,35.12,35.12,0,0,1-32.61-.05ZM210,356.34a23.48,23.48,0,0,0,9.1-9,26.79,26.79,0,0,0,0-25.76,23.55,23.55,0,0,0-9.1-9,27.75,27.75,0,0,0-26.06,0,23.78,23.78,0,0,0-9.19,9,26.5,26.5,0,0,0,0,25.76,23.71,23.71,0,0,0,9.19,9,27.75,27.75,0,0,0,26.06,0Z" transform="translate(-53 -70)"/><path class="cls-1" d="M271.48,309.64H250.15v-5.55h49.09v5.55H277.9v55.15h-6.42Z" transform="translate(-53 -70)"/><path class="cls-1" d="M336.13,361.28a29.44,29.44,0,0,1-11.44-11,32.3,32.3,0,0,1,0-31.57,29.47,29.47,0,0,1,11.44-11.06,35.15,35.15,0,0,1,32.61,0,29.51,29.51,0,0,1,11.41,11.06,32.18,32.18,0,0,1,0,31.65,29.58,29.58,0,0,1-11.41,11.06,35.12,35.12,0,0,1-32.61-.05Zm29.36-4.94a23.57,23.57,0,0,0,9.11-9,26.86,26.86,0,0,0,0-25.76,23.64,23.64,0,0,0-9.11-9,27.75,27.75,0,0,0-26.06,0,23.78,23.78,0,0,0-9.19,9,26.5,26.5,0,0,0,0,25.76,23.71,23.71,0,0,0,9.19,9,27.75,27.75,0,0,0,26.06,0Z" transform="translate(-53 -70)"/><rect class="cls-1" x="3" y="1" width="94" height="17"/><rect class="cls-1" y="1" width="18" height="95"/><rect class="cls-1" x="380.5" y="111.5" width="94" height="17" transform="translate(494.5 -377.5) rotate(90)"/><rect class="cls-1" x="379.5" y="31.5" width="18" height="95" transform="translate(414.5 -379.5) rotate(90)"/><rect class="cls-1" x="340" y="405" width="94" height="17" transform="translate(721 757) rotate(180)"/><rect class="cls-1" x="419" y="327" width="18" height="95" transform="translate(803 679) rotate(180)"/><rect class="cls-1" x="14.5" y="363.5" width="94" height="17" transform="translate(-363.5 363.5) rotate(-90)"/><rect class="cls-1" x="91.5" y="365.5" width="18" height="95" transform="translate(-365.5 443.5) rotate(-90)"/></svg>